<svg xmlns="http://www.w3.org/2000/svg" width="16" height="16" fill="none" viewBox="0 0 16 16"><mask id="a" width="16" height="16" x="0" y="0" maskUnits="userSpaceOnUse" style="mask-type:alpha"><path fill="#D9D9D9" d="M0 0h16v16H0z"/></mask><g mask="url(#a)"><path fill="#400114" d="M3.9 11.4a6.957 6.957 0 0 1 1.9-1.025C6.5 10.125 7.234 10 8 10c.767 0 1.5.125 2.2.375.7.25 1.334.592 1.9 1.025.39-.456.692-.972.909-1.55A5.225 5.225 0 0 0 13.333 8c0-1.478-.52-2.736-1.559-3.775C10.736 3.186 9.478 2.667 8 2.667c-1.478 0-2.736.52-3.775 1.558C3.186 5.264 2.667 6.522 2.667 8c0 .656.108 1.272.325 1.85.216.578.52 1.094.908 1.55ZM8 8.667c-.655 0-1.208-.225-1.658-.675-.45-.45-.675-1.003-.675-1.659 0-.655.225-1.208.675-1.658C6.792 4.225 7.345 4 8 4c.656 0 1.209.225 1.659.675.45.45.675 1.003.675 1.658 0 .656-.226 1.209-.675 1.659-.45.45-1.003.675-1.659.675Zm0 6a6.492 6.492 0 0 1-2.6-.525 6.732 6.732 0 0 1-2.117-1.425A6.733 6.733 0 0 1 1.86 10.6 6.492 6.492 0 0 1 1.333 8c0-.922.175-1.789.526-2.6a6.732 6.732 0 0 1 1.425-2.117c.6-.6 1.305-1.075 2.116-1.425A6.492 6.492 0 0 1 8 1.333c.922 0 1.789.175 2.6.525.811.35 1.517.825 2.117 1.425.6.6 1.075 1.306 1.425 2.117.35.811.525 1.678.525 2.6 0 .922-.175 1.789-.525 2.6a6.733 6.733 0 0 1-1.425 2.117c-.6.6-1.306 1.075-2.117 1.425a6.492 6.492 0 0 1-2.6.525Zm0-1.334c.59 0 1.145-.086 1.667-.258.522-.172 1-.42 1.433-.742a5.02 5.02 0 0 0-1.433-.741A5.286 5.286 0 0 0 8 11.333c-.589 0-1.144.086-1.667.259-.522.172-1 .42-1.433.741.433.323.911.57 1.433.742A5.289 5.289 0 0 0 8 13.333Zm0-6a.971.971 0 0 0 .717-.283A.971.971 0 0 0 9 6.333a.971.971 0 0 0-.283-.716A.971.971 0 0 0 8 5.333a.971.971 0 0 0-.716.284.971.971 0 0 0-.284.716.971.971 0 0 0 1 1Z"/></g></svg>