<svg xmlns="http://www.w3.org/2000/svg" width="68" height="30" fill="none" viewBox="0 0 68 30"><g clip-path="url(#a)"><path fill="#400114" d="M10.82 8.84c-.053.507-.093 1-.12 1.48-.013.467-.02.827-.02 1.08 0 .32.007.62.02.9.013.28.027.527.04.74h-.46c-.093-.933-.22-1.667-.38-2.2-.16-.547-.44-.94-.84-1.18-.4-.24-1.02-.36-1.86-.36H5.94c-.453 0-.8.04-1.04.12a.666.666 0 0 0-.46.46c-.08.227-.12.587-.12 1.08v9.92c0 .48.047.84.14 1.08.107.24.307.4.6.48.293.08.72.133 1.28.16v.4c-.347-.027-.787-.04-1.32-.04a64.985 64.985 0 0 0-1.62-.02c-.52 0-1.007.007-1.46.02-.453 0-.82.013-1.1.04v-.4c.453-.027.793-.08 1.02-.16.24-.08.4-.24.48-.48.08-.24.12-.6.12-1.08v-9.92c0-.493-.04-.853-.12-1.08a.721.721 0 0 0-.48-.48c-.227-.093-.567-.147-1.02-.16v-.4c.493.013 1.013.027 1.56.04.547 0 1.087.007 1.62.02h4.7a80.152 80.152 0 0 0 2.1-.06Zm-3.1 7.04v.4h-4v-.4h4Zm.38-2.64c-.053.76-.08 1.34-.08 1.74.013.4.02.767.02 1.1 0 .333.007.7.02 1.1.013.4.047.98.1 1.74H7.7c-.053-.427-.12-.84-.2-1.24-.067-.413-.227-.747-.48-1-.24-.267-.653-.4-1.24-.4v-.4c.44 0 .773-.087 1-.26.24-.187.413-.42.52-.7.107-.28.18-.567.22-.86.04-.307.08-.58.12-.82h.46Zm6.91-5.92v13.82c0 .56.113.94.34 1.14.24.2.633.3 1.18.3V23a37.977 37.977 0 0 0-1.04-.04 23.468 23.468 0 0 0-2.76 0c-.467.013-.813.027-1.04.04v-.42c.547 0 .933-.1 1.16-.3.24-.2.36-.58.36-1.14V9.72c0-.6-.107-1.04-.32-1.32-.213-.293-.613-.44-1.2-.44v-.42c.427.04.84.06 1.24.06.387 0 .753-.02 1.1-.06.36-.053.687-.127.98-.22Zm7.247 5.1c.854 0 1.62.187 2.3.56.68.373 1.22.96 1.62 1.76.414.8.62 1.84.62 3.12s-.206 2.32-.62 3.12c-.4.787-.94 1.367-1.62 1.74-.68.373-1.446.56-2.3.56-.84 0-1.606-.187-2.3-.56-.68-.373-1.226-.953-1.64-1.74-.4-.8-.6-1.84-.6-3.12s.2-2.32.6-3.12c.414-.8.96-1.387 1.64-1.76a4.774 4.774 0 0 1 2.3-.56Zm0 .4c-.76 0-1.386.393-1.88 1.18-.48.787-.72 2.073-.72 3.86s.24 3.073.72 3.86c.494.773 1.12 1.16 1.88 1.16.76 0 1.38-.387 1.86-1.16.494-.787.74-2.073.74-3.86s-.246-3.073-.74-3.86c-.48-.787-1.1-1.18-1.86-1.18Zm12.277-.4c.36 0 .674.073.94.22.28.147.494.34.64.58.16.227.24.487.24.78 0 .333-.106.627-.32.88-.2.253-.473.38-.82.38a1.14 1.14 0 0 1-.74-.26c-.213-.187-.32-.447-.32-.78 0-.253.067-.467.2-.64.147-.187.307-.333.48-.44-.093-.133-.233-.2-.42-.2a1.89 1.89 0 0 0-1.14.38c-.346.24-.64.553-.88.94a5.2 5.2 0 0 0-.56 1.24c-.133.427-.2.827-.2 1.2v4.24c0 .653.187 1.093.56 1.32.387.213.907.32 1.56.32V23a70.84 70.84 0 0 0-1.3-.04 37.46 37.46 0 0 0-1.78-.04c-.453 0-.906.013-1.36.04-.44.013-.773.027-1 .04v-.42c.547 0 .934-.1 1.16-.3.24-.2.36-.58.36-1.14v-6.26c0-.6-.106-1.04-.32-1.32-.213-.293-.613-.44-1.2-.44v-.42c.427.04.84.06 1.24.06.387 0 .754-.02 1.1-.06a6.27 6.27 0 0 0 .98-.22v2.5c.147-.387.354-.773.62-1.16.28-.4.614-.733 1-1 .387-.267.814-.4 1.28-.4Zm5.527 10.72c-.547 0-1.02-.1-1.42-.3a2.254 2.254 0 0 1-.92-.88c-.2-.373-.3-.807-.3-1.3 0-.587.133-1.067.4-1.44.28-.373.633-.673 1.06-.9a7.899 7.899 0 0 1 1.34-.56c.48-.16.933-.307 1.36-.44.426-.147.773-.313 1.04-.5.28-.187.42-.433.42-.74v-1.24c0-.56-.087-.987-.26-1.28-.16-.293-.38-.487-.66-.58a2.622 2.622 0 0 0-.94-.16c-.334 0-.694.047-1.08.14a1.59 1.59 0 0 0-.9.58c.253.053.473.187.66.4.186.213.28.487.28.82 0 .333-.107.6-.32.8-.214.187-.487.28-.82.28-.387 0-.674-.12-.86-.36a1.455 1.455 0 0 1-.26-.84c0-.347.086-.627.26-.84.173-.213.393-.413.66-.6.306-.213.7-.393 1.18-.54a5.366 5.366 0 0 1 1.66-.24c.546 0 1.013.067 1.4.2.386.12.706.3.96.54.346.32.573.713.68 1.18.106.453.16 1 .16 1.64v5.56c0 .333.046.573.14.72.106.147.266.22.48.22a.927.927 0 0 0 .42-.1c.133-.067.293-.173.48-.32l.22.34c-.28.213-.547.393-.8.54-.254.133-.594.2-1.02.2-.387 0-.707-.067-.96-.2a1.354 1.354 0 0 1-.58-.58c-.12-.267-.18-.6-.18-1-.36.6-.794 1.047-1.3 1.34a3.224 3.224 0 0 1-1.68.44Zm.72-.8c.44 0 .846-.127 1.22-.38.386-.253.733-.633 1.04-1.14V16.9c-.16.227-.394.42-.7.58-.307.147-.64.3-1 .46-.36.147-.707.327-1.04.54-.32.2-.587.467-.8.8-.214.333-.32.767-.32 1.3s.14.96.42 1.28c.293.32.686.48 1.18.48Zm9.58-15.02v13.82c0 .56.114.94.34 1.14.24.2.634.3 1.18.3V23a37.994 37.994 0 0 0-1.04-.04 23.473 23.473 0 0 0-2.76 0 37.96 37.96 0 0 0-1.04.04v-.42c.547 0 .934-.1 1.16-.3.24-.2.36-.58.36-1.14V9.72c0-.6-.106-1.04-.32-1.32-.213-.293-.613-.44-1.2-.44v-.42c.427.04.84.06 1.24.06.387 0 .754-.02 1.1-.06a6.27 6.27 0 0 0 .98-.22Zm4.823.38c.347 0 .647.127.9.38.254.253.38.553.38.9s-.126.647-.38.9a1.23 1.23 0 0 1-.9.38 1.23 1.23 0 0 1-.9-.38 1.23 1.23 0 0 1-.38-.9c0-.347.127-.647.38-.9a1.23 1.23 0 0 1 .9-.38Zm1.04 4.78v8.66c0 .56.114.94.34 1.14.24.2.634.3 1.18.3V23a37.96 37.96 0 0 0-1.04-.04 23.468 23.468 0 0 0-2.76 0c-.466.013-.813.027-1.04.04v-.42c.547 0 .934-.1 1.16-.3.24-.2.36-.58.36-1.14v-6.26c0-.6-.106-1.04-.32-1.32-.213-.293-.613-.44-1.2-.44v-.42c.427.04.84.06 1.24.06.387 0 .754-.02 1.1-.06.36-.053.687-.127.98-.22Zm6.12-.06c.533 0 .986.087 1.36.26.373.173.646.333.82.48.44.36.706.12.8-.72h.46c-.027.373-.047.82-.06 1.34-.014.507-.02 1.193-.02 2.06h-.46a6.138 6.138 0 0 0-.42-1.44 2.688 2.688 0 0 0-.84-1.14c-.374-.307-.86-.46-1.46-.46-.467 0-.86.133-1.18.4-.307.253-.46.633-.46 1.14 0 .4.12.747.36 1.04.24.28.553.547.94.8.386.24.806.507 1.26.8.506.32.966.647 1.38.98.413.333.74.7.98 1.1.253.4.38.873.38 1.42 0 .613-.16 1.127-.48 1.54-.32.413-.74.727-1.26.94a4.288 4.288 0 0 1-1.68.32c-.294 0-.574-.027-.84-.08-.254-.04-.5-.107-.74-.2a4.739 4.739 0 0 1-.42-.24 7.775 7.775 0 0 1-.4-.3c-.134-.107-.254-.1-.36.02-.107.107-.187.327-.24.66h-.46c.026-.427.046-.947.06-1.56.013-.613.02-1.427.02-2.44h.46c.093.747.226 1.4.4 1.96.173.56.446 1 .82 1.32.373.307.893.46 1.56.46.266 0 .533-.06.8-.18.28-.12.513-.32.7-.6.186-.28.28-.653.28-1.12 0-.587-.214-1.067-.64-1.44a13.186 13.186 0 0 0-1.62-1.18c-.48-.307-.934-.613-1.36-.92a4.43 4.43 0 0 1-1.02-1.04c-.254-.387-.38-.853-.38-1.4 0-.6.133-1.087.4-1.46.28-.387.646-.667 1.1-.84.453-.187.94-.28 1.46-.28Z"/></g><defs><clipPath id="a"><path fill="#fff" d="M0 0h68v30H0z"/></clipPath></defs></svg>