<svg xmlns="http://www.w3.org/2000/svg" width="16" height="16" fill="none" viewBox="0 0 16 16"><mask id="a" width="16" height="16" x="0" y="0" maskUnits="userSpaceOnUse" style="mask-type:alpha"><path fill="#D9D9D9" d="M0 0h16v16H0z"/></mask><g mask="url(#a)"><path fill="#484848" d="M12.05 13.323 7.994 9.258a3.92 3.92 0 0 1-2.448.839c-1.17 0-2.16-.406-2.971-1.218-.81-.812-1.216-1.804-1.216-2.976s.405-2.164 1.216-2.976c.81-.811 1.8-1.217 2.971-1.217 1.17 0 2.16.406 2.971 1.217.81.812 1.216 1.804 1.216 2.976a3.938 3.938 0 0 1-.837 2.452l4.058 4.064-.902.904ZM5.546 8.806c.805 0 1.49-.282 2.053-.846.564-.565.846-1.25.846-2.057 0-.806-.282-1.492-.846-2.056A2.793 2.793 0 0 0 5.545 3c-.805 0-1.49.282-2.053.847a2.802 2.802 0 0 0-.846 2.056c0 .807.282 1.492.846 2.057a2.793 2.793 0 0 0 2.053.846Z"/></g></svg>