<svg xmlns="http://www.w3.org/2000/svg" width="16" height="16" fill="none" viewBox="0 0 16 16"><mask id="a" width="16" height="16" x="0" y="0" maskUnits="userSpaceOnUse" style="mask-type:alpha"><path fill="#D9D9D9" d="M0 0h16v16H0z"/></mask><g mask="url(#a)"><path fill="#400114" d="M4.667 14.667c-.367 0-.681-.13-.942-.392a1.284 1.284 0 0 1-.392-.942c0-.366.13-.68.392-.941.26-.261.575-.392.942-.392.366 0 .68.13.941.392.261.26.392.575.392.941 0 .367-.13.68-.392.942a1.284 1.284 0 0 1-.941.392Zm6.666 0c-.367 0-.68-.13-.941-.392a1.284 1.284 0 0 1-.392-.942c0-.366.13-.68.392-.941.26-.261.575-.392.941-.392.367 0 .68.13.942.392.26.26.391.575.391.941 0 .367-.13.68-.391.942a1.284 1.284 0 0 1-.942.392ZM4.1 4l1.6 3.333h4.667L12.2 4H4.1Zm-.633-1.333H13.3c.255 0 .45.114.583.341a.672.672 0 0 1 .017.692l-2.367 4.267a1.336 1.336 0 0 1-.492.516c-.205.123-.43.184-.675.184H5.4L4.666 10h8v1.333h-8c-.5 0-.877-.22-1.133-.658-.255-.439-.266-.875-.033-1.308l.9-1.634L2 2.667H.667V1.333h2.166l.633 1.334Z"/></g></svg>